General
      Complete name : Ballast.2008.BRRip.H264.AAC.5.1ch.Gopo.mp4
      Format : MPEG-4
      Format profile : Base Media
      Codec ID : isom
      File size : 1.47 GiB
      Duration : 1h 36mn
      Overall bit rate : 2 184 Kbps
      Encoded date : UTC 2009-12-12 11:47:42
      Tagged date : UTC 2009-12-12 11:47:42
      Writing application : Yamb 2.1.0.0 [http://yamb.unite-video.com]
   Video #1
      ID : 1
      Format : AVC
      Format/Info : Advanced Video Codec
      Format profile : High@L4.1
      Format settings, CABAC : Yes
      Format settings, ReFrames : 2 frames
      Codec ID : avc1
      Codec ID/Info : Advanced Video Coding
      Duration : 1h 36mn
      Bit rate mode : Variable
      Bit rate : 1 871 Kbps
      Maximum bit rate : 10.3 Mbps
      Width : 1 280 pixels
      Height : 528 pixels
      Display aspect ratio : 2.40:1
      Frame rate mode : Constant
      Frame rate : 23.976 fps
      Resolution : 24 bits
      Colorimetry : 4:2:0
      Scan type : Progressive
      Bits/(Pixel*Frame) : 0.115
      Stream size : 1.26 GiB (86%)
      Writing library : x264 core 79 r1360 528c100
      Encoding settings : cabac=1 / ref=2 / deblock=1:0:0 / analyse=0x3:0x113 / me=umh / subme=8 / psy=1 / psy_rd=1.0:0.0 / mixed_ref=1 / me_range=16 / chroma_me=1 / trellis=2 / 8x8dct=1 / cqm=0 / deadzone=21,11 / chroma_qp_offset=-2 / threads=3 / nr=0 / decimate=1 / mbaff=0 / constrained_intra=0 / bframes=3 / b_pyramid=0 / b_adapt=2 / b_bias=0 / direct=3 / wpredb=1 / wpredp=2 / keyint=250 / keyint_min=25 / scenecut=40 / rc_lookahead=30 / rc=2pass / mbtree=1 / bitrate=1871 / ratetol=1.0 / qcomp=0.50 / qpmin=10 / qpmax=51 / qpstep=4 / cplxblur=20.0 / qblur=0.5 / vbv_maxrate=24000 / vbv_bufsize=24000 / ip_ratio=1.10 / aq=1:1.00
      Encoded date : UTC 2009-12-11 16:09:09
      Tagged date : UTC 2009-12-12 11:50:45
   Audio #2
      ID : 2
      Format : AAC
      Format/Info : Advanced Audio Codec
      Format version : Version 4
      Format profile : LC
      Format settings, SBR : No
      Codec ID : 40
      Duration : 1h 36mn
      Bit rate mode : Variable
      Bit rate : 309 Kbps
      Maximum bit rate : 437 Kbps
      Channel(s) : 6 channels
      Channel positions : Front: L C R, Rear: L R, LFE
      Sampling rate : 48.0 KHz
      Resolution : 16 bits
      Stream size : 213 MiB (14%)
      Encoded date : UTC 2009-12-12 11:50:03
      Tagged date : UTC 2009-12-12 11:50:45
	Sample : YES
	Subtitle : English,Romanian

PLOT

A single mother and her embattled son struggle to subsist in a small Mississippi Delta township. An act of violence thrusts them into the world of an emotionally devastated highway store owner, awakening the fury of a bitter and longstanding conflict.
Director: Lance Hammer
CASTING
      
      Micheal J. Smith Sr.	... 	Lawrence
	JimMyron Ross	... 	James
	Tarra Riggs	... 	Marlee
	Johnny McPhail	... 	John
	Ventress Bonner	... 	Teen
	Jimez Alexander	... 	Teen
	Jean Paul Guillory	... 	Teen
	Marcus Alexander	... 	Teen
	Marquice Alexander	... 	Teen
	Lawrence Jackson	... 	Teen
	Jeremy Jordan	... 	Paramedic
	Steve Cabell	... 	Paramedic
	Samuel Dobbins	... 	Ambulance Driver
	Neil Pettigrew	... 	Dispatcher (voice)
	Sanjib Shrestha	... 	Dr. Shrestha

SOURCE: Ballast.2008.1080p.BluRay.x264-iKA.mkv

Notes: For best performance I suggest you to use KMPlayer(find it with google) for playback
I haven't tested the movies on a PS3 or Xbox or other devices than PC because I don't own one of them but feel free to test them if you have the oportunity.
